# xmcd
#
# Track frame offsets: 
#        150
#        15342
#        42463
#        62517
#        87668
#        98487
#        111562
#        125322
#        138224
#
# Disc length: 2027 seconds
#
# Revision: 5
# Processed by: cddbd v1.5.2PL0 Copyright (c) Steve Scherf et al.
# Submitted via: ExactAudioCopy v0.99pb5
#
DISCID=7007e909
DTITLE=Miles Davis - And Horns
DYEAR=1951
DGENRE=Jazz
TTITLE0=Tasty Pudding
TTITLE1=Floppy
TTITLE2=Willie The Wailer
TTITLE3=For Adults Only
TTITLE4=Morpheus
TTITLE5=Down
TTITLE6=Blue Room
TTITLE7=Blue Room (Alternate Take)
TTITLE8=Whispering
EXTD=#1-4: Recorded February 19, 1953\nMiles Davis: trumpet\nSonny Tru
EXTD=itt: trombone\nAl Cohn, Zoot Sims: tenor saxes\nJohn Lewis: piano
EXTD=\nLeonard Gaskin: bass\nKenny Clarke: drums\n\n#5-9: Recorded Jan
EXTD=uary 17, 1951\nMiles Davis: trumpet\nBenny Green: trombone\nSonny
EXTD=Rollins: tenor sax (except #7]\nJohn Lewis: piano\nPercy Heath: 
EXTD=bass\nRoy Haynes: drums\n\n#8-9 not on original LP\nEntry: Martin
EXTD=Emmerich <me@grmbl.muc.de>\n03-Mar-1998 YEAR: 1951
EXTT0=
EXTT1=
EXTT2=
EXTT3=
EXTT4=
EXTT5=
EXTT6=
EXTT7=
EXTT8=
PLAYORDER=
